<svg width="147" height="91" fill="none" xmlns="http://www.w3.org/2000/svg"><g clip-path="url(#a)" fill-rule="evenodd" clip-rule="evenodd" fill="#118DA8"><path d="M18.685.219C12.884 2.83 7.122 5.362 1.4 8.142a2.464 2.464 0 0 0-1.154 3.293 2.463 2.463 0 0 0 3.295 1.158c5.692-2.76 11.405-5.272 17.166-7.864a2.48 2.48 0 0 0 1.244-3.264A2.469 2.469 0 0 0 18.685.22zM61.305 31.11C52.88 49.399 45.38 68.103 37.35 86.56a2.478 2.478 0 0 0 1.273 3.255 2.472 2.472 0 0 0 3.256-1.276c8.01-18.428 15.489-37.103 23.905-55.352a2.478 2.478 0 0 0-1.204-3.284 2.466 2.466 0 0 0-3.275 1.207zM133.591 35.858c2.694 16.815 5.861 33.58 8.367 50.426a2.476 2.476 0 0 0 2.801 2.076 2.475 2.475 0 0 0 2.082-2.808c-2.516-16.865-5.683-33.65-8.386-50.486a2.465 2.465 0 0 0-2.821-2.047 2.468 2.468 0 0 0-2.043 2.839z"/></g><defs><clipPath id="a"><path fill="#fff" d="M0 0h147v91H0z"/></clipPath></defs></svg>